<mxfile host="app.diagrams.net" agent="Mozilla/5.0 (Windows NT 10.0; Win64; x64) AppleWebKit/537.36 (KHTML, like Gecko) Chrome/130.0.0.0 Safari/537.36" version="24.8.3">
  <diagram id="R2lEEEUBdFMjLlhIrx00" name="Page-1">
    <mxGraphModel dx="2284" dy="780" grid="1" gridSize="10" guides="1" tooltips="1" connect="1" arrows="1" fold="1" page="1" pageScale="1" pageWidth="850" pageHeight="1100" math="0" shadow="0" extFonts="Permanent Marker^https://fonts.googleapis.com/css?family=Permanent+Marker">
      <root>
        <mxCell id="0" />
        <mxCell id="1" parent="0" />
        <mxCell id="YOeBT9Yz34TctYIcOqEe-1" value="Colegio" style="whiteSpace=wrap;html=1;align=center;" parent="1" vertex="1">
          <mxGeometry x="90" y="100" width="100" height="40" as="geometry" />
        </mxCell>
        <mxCell id="YOeBT9Yz34TctYIcOqEe-2" value="Tiene" style="shape=rhombus;perimeter=rhombusPerimeter;whiteSpace=wrap;html=1;align=center;" parent="1" vertex="1">
          <mxGeometry x="92.5" y="170" width="95" height="40" as="geometry" />
        </mxCell>
        <mxCell id="YOeBT9Yz34TctYIcOqEe-3" value="" style="endArrow=none;html=1;rounded=0;entryX=0.5;entryY=1;entryDx=0;entryDy=0;exitX=0.5;exitY=0;exitDx=0;exitDy=0;" parent="1" source="YOeBT9Yz34TctYIcOqEe-2" target="YOeBT9Yz34TctYIcOqEe-1" edge="1">
          <mxGeometry relative="1" as="geometry">
            <mxPoint x="30" y="160" as="sourcePoint" />
            <mxPoint x="190" y="160" as="targetPoint" />
          </mxGeometry>
        </mxCell>
        <mxCell id="YOeBT9Yz34TctYIcOqEe-4" value="Grado" style="whiteSpace=wrap;html=1;align=center;" parent="1" vertex="1">
          <mxGeometry x="90" y="250" width="100" height="40" as="geometry" />
        </mxCell>
        <mxCell id="YOeBT9Yz34TctYIcOqEe-6" value="&lt;div&gt;Estudiante&lt;/div&gt;" style="whiteSpace=wrap;html=1;align=center;" parent="1" vertex="1">
          <mxGeometry x="90" y="380" width="100" height="40" as="geometry" />
        </mxCell>
        <mxCell id="YOeBT9Yz34TctYIcOqEe-7" value="Candidato" style="whiteSpace=wrap;html=1;align=center;" parent="1" vertex="1">
          <mxGeometry x="90" y="550" width="100" height="40" as="geometry" />
        </mxCell>
        <mxCell id="YOeBT9Yz34TctYIcOqEe-8" value="Voto" style="whiteSpace=wrap;html=1;align=center;" parent="1" vertex="1">
          <mxGeometry x="325" y="210" width="100" height="40" as="geometry" />
        </mxCell>
        <mxCell id="YOeBT9Yz34TctYIcOqEe-9" value="Eleccion" style="whiteSpace=wrap;html=1;align=center;" parent="1" vertex="1">
          <mxGeometry x="325" y="380" width="100" height="40" as="geometry" />
        </mxCell>
        <mxCell id="YOeBT9Yz34TctYIcOqEe-10" value="Resultado" style="whiteSpace=wrap;html=1;align=center;" parent="1" vertex="1">
          <mxGeometry x="600" y="210" width="100" height="40" as="geometry" />
        </mxCell>
        <mxCell id="YOeBT9Yz34TctYIcOqEe-11" value="Forma" style="shape=rhombus;perimeter=rhombusPerimeter;whiteSpace=wrap;html=1;align=center;" parent="1" vertex="1">
          <mxGeometry x="92.5" y="320" width="95" height="40" as="geometry" />
        </mxCell>
        <mxCell id="YOeBT9Yz34TctYIcOqEe-12" value="Postula" style="shape=rhombus;perimeter=rhombusPerimeter;whiteSpace=wrap;html=1;align=center;" parent="1" vertex="1">
          <mxGeometry x="92.5" y="470" width="95" height="40" as="geometry" />
        </mxCell>
        <mxCell id="YOeBT9Yz34TctYIcOqEe-13" value="participa" style="shape=rhombus;perimeter=rhombusPerimeter;whiteSpace=wrap;html=1;align=center;" parent="1" vertex="1">
          <mxGeometry x="210" y="380" width="95" height="40" as="geometry" />
        </mxCell>
        <mxCell id="YOeBT9Yz34TctYIcOqEe-14" value="emite" style="shape=rhombus;perimeter=rhombusPerimeter;whiteSpace=wrap;html=1;align=center;" parent="1" vertex="1">
          <mxGeometry x="327.5" y="310" width="95" height="40" as="geometry" />
        </mxCell>
        <mxCell id="YOeBT9Yz34TctYIcOqEe-15" value="genera" style="shape=rhombus;perimeter=rhombusPerimeter;whiteSpace=wrap;html=1;align=center;" parent="1" vertex="1">
          <mxGeometry x="470" y="210" width="95" height="40" as="geometry" />
        </mxCell>
        <mxCell id="YOeBT9Yz34TctYIcOqEe-17" value="" style="endArrow=none;html=1;rounded=0;entryX=0.5;entryY=1;entryDx=0;entryDy=0;exitX=0.5;exitY=0;exitDx=0;exitDy=0;" parent="1" source="YOeBT9Yz34TctYIcOqEe-11" target="YOeBT9Yz34TctYIcOqEe-4" edge="1">
          <mxGeometry relative="1" as="geometry">
            <mxPoint x="-20" y="310" as="sourcePoint" />
            <mxPoint x="140" y="310" as="targetPoint" />
          </mxGeometry>
        </mxCell>
        <mxCell id="YOeBT9Yz34TctYIcOqEe-22" value="" style="endArrow=none;html=1;rounded=0;entryX=0.5;entryY=1;entryDx=0;entryDy=0;exitX=0.5;exitY=0;exitDx=0;exitDy=0;" parent="1" source="YOeBT9Yz34TctYIcOqEe-4" target="YOeBT9Yz34TctYIcOqEe-2" edge="1">
          <mxGeometry relative="1" as="geometry">
            <mxPoint x="40" y="240" as="sourcePoint" />
            <mxPoint x="200" y="240" as="targetPoint" />
          </mxGeometry>
        </mxCell>
        <mxCell id="YOeBT9Yz34TctYIcOqEe-24" value="" style="endArrow=none;html=1;rounded=0;entryX=0.5;entryY=1;entryDx=0;entryDy=0;exitX=0.5;exitY=0;exitDx=0;exitDy=0;" parent="1" source="YOeBT9Yz34TctYIcOqEe-6" target="YOeBT9Yz34TctYIcOqEe-11" edge="1">
          <mxGeometry relative="1" as="geometry">
            <mxPoint x="-100" y="390" as="sourcePoint" />
            <mxPoint x="60" y="390" as="targetPoint" />
          </mxGeometry>
        </mxCell>
        <mxCell id="YOeBT9Yz34TctYIcOqEe-26" value="" style="endArrow=none;html=1;rounded=0;entryX=0.5;entryY=1;entryDx=0;entryDy=0;exitX=0.5;exitY=0;exitDx=0;exitDy=0;" parent="1" source="YOeBT9Yz34TctYIcOqEe-12" target="YOeBT9Yz34TctYIcOqEe-6" edge="1">
          <mxGeometry relative="1" as="geometry">
            <mxPoint x="-20" y="440" as="sourcePoint" />
            <mxPoint x="140" y="440" as="targetPoint" />
          </mxGeometry>
        </mxCell>
        <mxCell id="YOeBT9Yz34TctYIcOqEe-28" value="" style="endArrow=none;html=1;rounded=0;entryX=0.5;entryY=1;entryDx=0;entryDy=0;exitX=0.5;exitY=0;exitDx=0;exitDy=0;" parent="1" source="YOeBT9Yz34TctYIcOqEe-7" target="YOeBT9Yz34TctYIcOqEe-12" edge="1">
          <mxGeometry relative="1" as="geometry">
            <mxPoint x="-40" y="540" as="sourcePoint" />
            <mxPoint x="120" y="540" as="targetPoint" />
          </mxGeometry>
        </mxCell>
        <mxCell id="YOeBT9Yz34TctYIcOqEe-29" value="" style="endArrow=none;html=1;rounded=0;exitX=1;exitY=0.5;exitDx=0;exitDy=0;entryX=0.5;entryY=1;entryDx=0;entryDy=0;" parent="1" source="YOeBT9Yz34TctYIcOqEe-7" target="YOeBT9Yz34TctYIcOqEe-13" edge="1">
          <mxGeometry relative="1" as="geometry">
            <mxPoint x="230" y="580" as="sourcePoint" />
            <mxPoint x="390" y="580" as="targetPoint" />
            <Array as="points">
              <mxPoint x="258" y="570" />
            </Array>
          </mxGeometry>
        </mxCell>
        <mxCell id="YOeBT9Yz34TctYIcOqEe-30" value="" style="endArrow=none;html=1;rounded=0;exitX=1;exitY=0.5;exitDx=0;exitDy=0;entryX=0;entryY=0.5;entryDx=0;entryDy=0;" parent="1" source="YOeBT9Yz34TctYIcOqEe-6" target="YOeBT9Yz34TctYIcOqEe-13" edge="1">
          <mxGeometry relative="1" as="geometry">
            <mxPoint x="200" y="370" as="sourcePoint" />
            <mxPoint x="360" y="370" as="targetPoint" />
          </mxGeometry>
        </mxCell>
        <mxCell id="YOeBT9Yz34TctYIcOqEe-31" value="" style="endArrow=none;html=1;rounded=0;exitX=1;exitY=0.5;exitDx=0;exitDy=0;entryX=0;entryY=0.5;entryDx=0;entryDy=0;" parent="1" source="YOeBT9Yz34TctYIcOqEe-13" target="YOeBT9Yz34TctYIcOqEe-9" edge="1">
          <mxGeometry relative="1" as="geometry">
            <mxPoint x="310" y="440" as="sourcePoint" />
            <mxPoint x="470" y="440" as="targetPoint" />
          </mxGeometry>
        </mxCell>
        <mxCell id="YOeBT9Yz34TctYIcOqEe-32" value="" style="endArrow=none;html=1;rounded=0;entryX=0.5;entryY=1;entryDx=0;entryDy=0;exitX=0.5;exitY=0;exitDx=0;exitDy=0;" parent="1" source="YOeBT9Yz34TctYIcOqEe-9" target="YOeBT9Yz34TctYIcOqEe-14" edge="1">
          <mxGeometry relative="1" as="geometry">
            <mxPoint x="230" y="360" as="sourcePoint" />
            <mxPoint x="390" y="360" as="targetPoint" />
          </mxGeometry>
        </mxCell>
        <mxCell id="YOeBT9Yz34TctYIcOqEe-33" value="" style="endArrow=none;html=1;rounded=0;entryX=0.5;entryY=1;entryDx=0;entryDy=0;exitX=0.5;exitY=0;exitDx=0;exitDy=0;" parent="1" source="YOeBT9Yz34TctYIcOqEe-14" target="YOeBT9Yz34TctYIcOqEe-8" edge="1">
          <mxGeometry relative="1" as="geometry">
            <mxPoint x="290" y="280" as="sourcePoint" />
            <mxPoint x="450" y="280" as="targetPoint" />
          </mxGeometry>
        </mxCell>
        <mxCell id="YOeBT9Yz34TctYIcOqEe-34" value="" style="endArrow=none;html=1;rounded=0;exitX=1;exitY=0.5;exitDx=0;exitDy=0;entryX=0;entryY=0.5;entryDx=0;entryDy=0;" parent="1" source="YOeBT9Yz34TctYIcOqEe-8" target="YOeBT9Yz34TctYIcOqEe-15" edge="1">
          <mxGeometry relative="1" as="geometry">
            <mxPoint x="450" y="260" as="sourcePoint" />
            <mxPoint x="610" y="260" as="targetPoint" />
          </mxGeometry>
        </mxCell>
        <mxCell id="YOeBT9Yz34TctYIcOqEe-35" value="" style="endArrow=none;html=1;rounded=0;exitX=1;exitY=0.5;exitDx=0;exitDy=0;entryX=0;entryY=0.5;entryDx=0;entryDy=0;" parent="1" source="YOeBT9Yz34TctYIcOqEe-15" target="YOeBT9Yz34TctYIcOqEe-10" edge="1">
          <mxGeometry relative="1" as="geometry">
            <mxPoint x="550" y="250" as="sourcePoint" />
            <mxPoint x="710" y="250" as="targetPoint" />
          </mxGeometry>
        </mxCell>
        <mxCell id="YOeBT9Yz34TctYIcOqEe-36" value="IdGrado" style="ellipse;whiteSpace=wrap;html=1;align=center;fontStyle=4;" parent="1" vertex="1">
          <mxGeometry x="-20" y="200" width="100" height="40" as="geometry" />
        </mxCell>
        <mxCell id="YOeBT9Yz34TctYIcOqEe-39" value="" style="endArrow=none;html=1;rounded=0;exitX=1;exitY=1;exitDx=0;exitDy=0;entryX=0;entryY=0;entryDx=0;entryDy=0;" parent="1" source="YOeBT9Yz34TctYIcOqEe-36" target="YOeBT9Yz34TctYIcOqEe-4" edge="1">
          <mxGeometry relative="1" as="geometry">
            <mxPoint x="20" y="270" as="sourcePoint" />
            <mxPoint x="180" y="270" as="targetPoint" />
          </mxGeometry>
        </mxCell>
        <mxCell id="YOeBT9Yz34TctYIcOqEe-40" value="Nivel" style="ellipse;whiteSpace=wrap;html=1;align=center;" parent="1" vertex="1">
          <mxGeometry x="-20" y="250" width="100" height="40" as="geometry" />
        </mxCell>
        <mxCell id="YOeBT9Yz34TctYIcOqEe-41" value="" style="endArrow=none;html=1;rounded=0;exitX=1;exitY=0.5;exitDx=0;exitDy=0;entryX=0;entryY=0.5;entryDx=0;entryDy=0;" parent="1" source="YOeBT9Yz34TctYIcOqEe-40" target="YOeBT9Yz34TctYIcOqEe-4" edge="1">
          <mxGeometry relative="1" as="geometry">
            <mxPoint x="50" y="300" as="sourcePoint" />
            <mxPoint x="210" y="300" as="targetPoint" />
          </mxGeometry>
        </mxCell>
        <mxCell id="YOeBT9Yz34TctYIcOqEe-42" value="IdEstudiante" style="ellipse;whiteSpace=wrap;html=1;align=center;fontStyle=4;" parent="1" vertex="1">
          <mxGeometry x="-20" y="320" width="80" height="30" as="geometry" />
        </mxCell>
        <mxCell id="YOeBT9Yz34TctYIcOqEe-43" value="" style="endArrow=none;html=1;rounded=0;exitX=1;exitY=0.5;exitDx=0;exitDy=0;entryX=0;entryY=0.25;entryDx=0;entryDy=0;" parent="1" source="YOeBT9Yz34TctYIcOqEe-42" target="YOeBT9Yz34TctYIcOqEe-6" edge="1">
          <mxGeometry relative="1" as="geometry">
            <mxPoint x="70" y="430" as="sourcePoint" />
            <mxPoint x="230" y="430" as="targetPoint" />
          </mxGeometry>
        </mxCell>
        <mxCell id="YOeBT9Yz34TctYIcOqEe-44" value="Nombre" style="ellipse;whiteSpace=wrap;html=1;align=center;" parent="1" vertex="1">
          <mxGeometry x="-20" y="350" width="80" height="30" as="geometry" />
        </mxCell>
        <mxCell id="YOeBT9Yz34TctYIcOqEe-45" value="" style="endArrow=none;html=1;rounded=0;exitX=1;exitY=0.5;exitDx=0;exitDy=0;entryX=0;entryY=0.5;entryDx=0;entryDy=0;" parent="1" source="YOeBT9Yz34TctYIcOqEe-44" target="YOeBT9Yz34TctYIcOqEe-6" edge="1">
          <mxGeometry relative="1" as="geometry">
            <mxPoint x="80" y="440" as="sourcePoint" />
            <mxPoint x="240" y="440" as="targetPoint" />
          </mxGeometry>
        </mxCell>
        <mxCell id="YOeBT9Yz34TctYIcOqEe-46" value="Apellido" style="ellipse;whiteSpace=wrap;html=1;align=center;" parent="1" vertex="1">
          <mxGeometry x="-20" y="380" width="80" height="30" as="geometry" />
        </mxCell>
        <mxCell id="YOeBT9Yz34TctYIcOqEe-47" value="" style="endArrow=none;html=1;rounded=0;exitX=1;exitY=0.5;exitDx=0;exitDy=0;entryX=0;entryY=0.5;entryDx=0;entryDy=0;" parent="1" source="YOeBT9Yz34TctYIcOqEe-46" target="YOeBT9Yz34TctYIcOqEe-6" edge="1">
          <mxGeometry relative="1" as="geometry">
            <mxPoint x="60" y="420" as="sourcePoint" />
            <mxPoint x="220" y="420" as="targetPoint" />
          </mxGeometry>
        </mxCell>
        <mxCell id="YOeBT9Yz34TctYIcOqEe-48" value="Documento" style="ellipse;whiteSpace=wrap;html=1;align=center;" parent="1" vertex="1">
          <mxGeometry x="-20" y="410" width="80" height="30" as="geometry" />
        </mxCell>
        <mxCell id="YOeBT9Yz34TctYIcOqEe-49" value="" style="endArrow=none;html=1;rounded=0;exitX=1;exitY=0.5;exitDx=0;exitDy=0;entryX=0;entryY=0.5;entryDx=0;entryDy=0;" parent="1" source="YOeBT9Yz34TctYIcOqEe-48" target="YOeBT9Yz34TctYIcOqEe-6" edge="1">
          <mxGeometry relative="1" as="geometry">
            <mxPoint x="60" y="450" as="sourcePoint" />
            <mxPoint x="220" y="450" as="targetPoint" />
          </mxGeometry>
        </mxCell>
        <mxCell id="YOeBT9Yz34TctYIcOqEe-53" value="IdCandidato" style="ellipse;whiteSpace=wrap;html=1;align=center;fontStyle=4;" parent="1" vertex="1">
          <mxGeometry x="-10" y="530" width="80" height="40" as="geometry" />
        </mxCell>
        <mxCell id="YOeBT9Yz34TctYIcOqEe-54" value="" style="endArrow=none;html=1;rounded=0;exitX=1;exitY=0.5;exitDx=0;exitDy=0;entryX=0;entryY=0.25;entryDx=0;entryDy=0;" parent="1" source="YOeBT9Yz34TctYIcOqEe-53" target="YOeBT9Yz34TctYIcOqEe-7" edge="1">
          <mxGeometry relative="1" as="geometry">
            <mxPoint x="80" y="570" as="sourcePoint" />
            <mxPoint x="240" y="570" as="targetPoint" />
          </mxGeometry>
        </mxCell>
        <mxCell id="YOeBT9Yz34TctYIcOqEe-56" value="Propuesta" style="ellipse;whiteSpace=wrap;html=1;align=center;" parent="1" vertex="1">
          <mxGeometry x="-10" y="570" width="80" height="30" as="geometry" />
        </mxCell>
        <mxCell id="YOeBT9Yz34TctYIcOqEe-57" value="" style="endArrow=none;html=1;rounded=0;exitX=1;exitY=0.5;exitDx=0;exitDy=0;entryX=0;entryY=0.5;entryDx=0;entryDy=0;" parent="1" source="YOeBT9Yz34TctYIcOqEe-56" target="YOeBT9Yz34TctYIcOqEe-7" edge="1">
          <mxGeometry relative="1" as="geometry">
            <mxPoint x="80" y="610" as="sourcePoint" />
            <mxPoint x="240" y="610" as="targetPoint" />
          </mxGeometry>
        </mxCell>
        <mxCell id="YOeBT9Yz34TctYIcOqEe-59" value="IdEleccion" style="ellipse;whiteSpace=wrap;html=1;align=center;fontStyle=4;" parent="1" vertex="1">
          <mxGeometry x="450" y="360" width="80" height="40" as="geometry" />
        </mxCell>
        <mxCell id="YOeBT9Yz34TctYIcOqEe-60" value="" style="endArrow=none;html=1;rounded=0;exitX=1;exitY=0.25;exitDx=0;exitDy=0;entryX=0;entryY=0.325;entryDx=0;entryDy=0;entryPerimeter=0;" parent="1" source="YOeBT9Yz34TctYIcOqEe-9" target="YOeBT9Yz34TctYIcOqEe-59" edge="1">
          <mxGeometry relative="1" as="geometry">
            <mxPoint x="440" y="420" as="sourcePoint" />
            <mxPoint x="600" y="420" as="targetPoint" />
          </mxGeometry>
        </mxCell>
        <mxCell id="YOeBT9Yz34TctYIcOqEe-61" value="Fecha_Inicio" style="ellipse;whiteSpace=wrap;html=1;align=center;" parent="1" vertex="1">
          <mxGeometry x="450" y="400" width="80" height="30" as="geometry" />
        </mxCell>
        <mxCell id="YOeBT9Yz34TctYIcOqEe-62" value="" style="endArrow=none;html=1;rounded=0;exitX=1;exitY=0.5;exitDx=0;exitDy=0;entryX=0.038;entryY=0.267;entryDx=0;entryDy=0;entryPerimeter=0;" parent="1" source="YOeBT9Yz34TctYIcOqEe-9" target="YOeBT9Yz34TctYIcOqEe-61" edge="1">
          <mxGeometry relative="1" as="geometry">
            <mxPoint x="440" y="430" as="sourcePoint" />
            <mxPoint x="600" y="430" as="targetPoint" />
          </mxGeometry>
        </mxCell>
        <mxCell id="YOeBT9Yz34TctYIcOqEe-63" value="Fecha_Fin" style="ellipse;whiteSpace=wrap;html=1;align=center;" parent="1" vertex="1">
          <mxGeometry x="450" y="440" width="80" height="30" as="geometry" />
        </mxCell>
        <mxCell id="YOeBT9Yz34TctYIcOqEe-64" value="" style="endArrow=none;html=1;rounded=0;exitX=1;exitY=0.75;exitDx=0;exitDy=0;entryX=0.038;entryY=0.2;entryDx=0;entryDy=0;entryPerimeter=0;" parent="1" source="YOeBT9Yz34TctYIcOqEe-9" target="YOeBT9Yz34TctYIcOqEe-63" edge="1">
          <mxGeometry relative="1" as="geometry">
            <mxPoint x="450" y="450" as="sourcePoint" />
            <mxPoint x="610" y="450" as="targetPoint" />
          </mxGeometry>
        </mxCell>
        <mxCell id="YOeBT9Yz34TctYIcOqEe-65" value="IdVoto" style="ellipse;whiteSpace=wrap;html=1;align=center;fontStyle=4;" parent="1" vertex="1">
          <mxGeometry x="422.5" y="160" width="80" height="40" as="geometry" />
        </mxCell>
        <mxCell id="YOeBT9Yz34TctYIcOqEe-66" value="" style="endArrow=none;html=1;rounded=0;entryX=0;entryY=0.5;entryDx=0;entryDy=0;exitX=0.75;exitY=0;exitDx=0;exitDy=0;" parent="1" source="YOeBT9Yz34TctYIcOqEe-8" target="YOeBT9Yz34TctYIcOqEe-65" edge="1">
          <mxGeometry relative="1" as="geometry">
            <mxPoint x="270" y="190" as="sourcePoint" />
            <mxPoint x="430" y="190" as="targetPoint" />
          </mxGeometry>
        </mxCell>
        <mxCell id="YOeBT9Yz34TctYIcOqEe-67" value="IdResultado" style="ellipse;whiteSpace=wrap;html=1;align=center;fontStyle=4;" parent="1" vertex="1">
          <mxGeometry x="710" y="160" width="80" height="40" as="geometry" />
        </mxCell>
        <mxCell id="YOeBT9Yz34TctYIcOqEe-68" value="" style="endArrow=none;html=1;rounded=0;exitX=0.75;exitY=0;exitDx=0;exitDy=0;entryX=0.1;entryY=0.7;entryDx=0;entryDy=0;entryPerimeter=0;" parent="1" source="YOeBT9Yz34TctYIcOqEe-10" target="YOeBT9Yz34TctYIcOqEe-67" edge="1">
          <mxGeometry relative="1" as="geometry">
            <mxPoint x="515" y="140" as="sourcePoint" />
            <mxPoint x="700" y="160" as="targetPoint" />
          </mxGeometry>
        </mxCell>
        <mxCell id="YOeBT9Yz34TctYIcOqEe-69" value="TotalVotos" style="ellipse;whiteSpace=wrap;html=1;align=center;" parent="1" vertex="1">
          <mxGeometry x="710" y="210" width="80" height="30" as="geometry" />
        </mxCell>
        <mxCell id="YOeBT9Yz34TctYIcOqEe-70" value="" style="endArrow=none;html=1;rounded=0;exitX=1;exitY=0.5;exitDx=0;exitDy=0;entryX=0;entryY=0.5;entryDx=0;entryDy=0;" parent="1" source="YOeBT9Yz34TctYIcOqEe-10" target="YOeBT9Yz34TctYIcOqEe-69" edge="1">
          <mxGeometry relative="1" as="geometry">
            <mxPoint x="710" y="270" as="sourcePoint" />
            <mxPoint x="870" y="270" as="targetPoint" />
          </mxGeometry>
        </mxCell>
        <mxCell id="YOeBT9Yz34TctYIcOqEe-72" value="Fecha_Conteo" style="ellipse;whiteSpace=wrap;html=1;align=center;" parent="1" vertex="1">
          <mxGeometry x="710" y="250" width="90" height="30" as="geometry" />
        </mxCell>
        <mxCell id="YOeBT9Yz34TctYIcOqEe-73" value="" style="endArrow=none;html=1;rounded=0;exitX=1;exitY=1;exitDx=0;exitDy=0;entryX=0;entryY=0.5;entryDx=0;entryDy=0;" parent="1" source="YOeBT9Yz34TctYIcOqEe-10" target="YOeBT9Yz34TctYIcOqEe-72" edge="1">
          <mxGeometry relative="1" as="geometry">
            <mxPoint x="690" y="300" as="sourcePoint" />
            <mxPoint x="850" y="300" as="targetPoint" />
          </mxGeometry>
        </mxCell>
      </root>
    </mxGraphModel>
  </diagram>
</mxfile>
